<svg width="520" height="520" viewBox="0 0 520 520" fill="none" xmlns="http://www.w3.org/2000/svg">
<circle cx="260" cy="260" r="260" fill="black"/>
<circle cx="260" cy="260" r="250" fill="#7E57C2"/>
<path d="M92 327C90.1667 327 88.6667 326.417 87.5 325.25C86.3333 324.083 85.75 322.583 85.75 320.75V203.25C85.75 201.417 86.3333 199.917 87.5 198.75C88.6667 197.583 90.1667 197 92 197H119.25C121.083 197 122.583 197.583 123.75 198.75C124.917 199.917 125.5 201.417 125.5 203.25V211.75C129.333 206.75 134.417 202.667 140.75 199.5C147.25 196.167 154.5 194.5 162.5 194.5C180.833 194.5 193.5 201.667 200.5 216C204.5 209.667 210.083 204.5 217.25 200.5C224.417 196.5 232.083 194.5 240.25 194.5C253.917 194.5 265 199.167 273.5 208.5C282.167 217.667 286.5 231.417 286.5 249.75V320.75C286.5 322.417 285.917 323.917 284.75 325.25C283.583 326.417 282.083 327 280.25 327H251.25C249.417 327 247.833 326.417 246.5 325.25C245.333 324.083 244.75 322.583 244.75 320.75V251.5C244.75 243.167 243 237.167 239.5 233.5C236.167 229.833 231.583 228 225.75 228C220.417 228 216 229.917 212.5 233.75C209 237.417 207.25 243.333 207.25 251.5V320.75C207.25 322.417 206.667 323.917 205.5 325.25C204.333 326.417 202.833 327 201 327H172C170.167 327 168.667 326.417 167.5 325.25C166.333 324.083 165.75 322.583 165.75 320.75V251.5C165.75 243.333 163.917 237.417 160.25 233.75C156.75 229.917 152.25 228 146.75 228C141.417 228 136.917 229.917 133.25 233.75C129.75 237.417 128 243.25 128 251.25V320.75C128 322.417 127.417 323.917 126.25 325.25C125.083 326.417 123.583 327 121.75 327H92ZM374.754 329.5C354.754 329.5 339.004 324.083 327.504 313.25C316.004 302.417 310.004 286.667 309.504 266V257.25C310.171 237.583 316.254 222.25 327.754 211.25C339.421 200.083 355.004 194.5 374.504 194.5C388.671 194.5 400.587 197.417 410.254 203.25C420.087 208.917 427.421 216.75 432.254 226.75C437.254 236.75 439.754 248.25 439.754 261.25V267.25C439.754 268.917 439.171 270.417 438.004 271.75C436.837 272.917 435.337 273.5 433.504 273.5H353.504V275.25C353.837 283.083 355.754 289.417 359.254 294.25C362.754 299.083 367.837 301.5 374.504 301.5C378.671 301.5 382.087 300.667 384.754 299C387.421 297.167 389.837 295 392.004 292.5C393.504 290.667 394.671 289.583 395.504 289.25C396.504 288.75 398.004 288.5 400.004 288.5H431.004C432.504 288.5 433.754 289 434.754 290C435.921 290.833 436.504 292 436.504 293.5C436.504 297.833 434.004 302.833 429.004 308.5C424.171 314.167 417.087 319.083 407.754 323.25C398.421 327.417 387.421 329.5 374.754 329.5ZM395.754 248.75V248.25C395.754 240.083 393.837 233.667 390.004 229C386.337 224.167 381.171 221.75 374.504 221.75C368.004 221.75 362.837 224.167 359.004 229C355.337 233.667 353.504 240.083 353.504 248.25V248.75H395.754Z" fill="black"/>
</svg>
